<?xml version="1.0" encoding="iso-8859-1"?>
<!-- Generator: Adobe Illustrator 19.0.0, SVG Export Plug-In . SVG Version: 6.00 Build 0)  -->
<svg version="1.1" id="Layer_1" xmlns="http://www.w3.org/2000/svg" xmlns:xlink="http://www.w3.org/1999/xlink" x="0px" y="0px"
	 viewBox="0 0 512 512" style="enable-background:new 0 0 512 512;" xml:space="preserve">
<path style="fill:#325763;" d="M417.45,295.059l-10.006-10.007c2.62-10.792-0.275-22.661-8.686-31.073l-6.5-6.5
	c-12.825-12.826-33.696-12.826-46.524,0c-12.855,12.856-12.857,33.666,0,46.523l6.501,6.502c8.274,8.274,20.089,11.35,31.072,8.684
	l5.007,5.007v48.431c0,9.425,7.641,17.067,17.067,17.067s17.067-7.641,17.067-17.067v-55.5
	C422.448,302.6,420.65,298.26,417.45,295.059z"/>
<path style="fill:#FAE8AC;" d="M241.22,303.65l-44.215-76.585h-94.216c-28.184,0-51.114-22.929-51.114-51.114V51.114
	C51.674,22.928,74.604,0,102.789,0h306.422c28.184,0,51.114,22.928,51.114,51.114v124.839c0,28.184-22.93,51.114-51.114,51.114
	h-94.216L270.78,303.65C264.215,315.021,247.775,315.004,241.22,303.65z"/>
<path style="fill:#F6D86E;" d="M409.211,0H256v312.172c5.749,0.001,11.498-2.838,14.78-8.522l44.215-76.585h94.216
	c28.184,0,51.114-22.929,51.114-51.114V51.114C460.326,22.928,437.396,0,409.211,0z"/>
<g>
	<path style="fill:#FBB071;" d="M366.906,100.943H145.094c-9.425,0-17.067-7.641-17.067-17.067s7.641-17.067,17.067-17.067h221.811
		c9.425,0,17.067,7.641,17.067,17.067S376.331,100.943,366.906,100.943z"/>
	<path style="fill:#FBB071;" d="M366.906,160.258H145.094c-9.425,0-17.067-7.641-17.067-17.067c0-9.425,7.641-17.067,17.067-17.067
		h221.811c9.425,0,17.067,7.641,17.067,17.067C383.972,152.617,376.331,160.258,366.906,160.258z"/>
</g>
<path style="fill:#16A5D9;" d="M420.56,512H91.44c-6.909,0-13.137-4.165-15.774-10.551l-22.699-54.955
	c-4.636-11.224,3.631-23.583,15.774-23.583h374.517c12.145,0,20.409,12.359,15.774,23.583l-22.699,54.955
	C433.697,507.835,427.469,512,420.56,512z"/>
<path style="fill:#1289B5;" d="M443.259,422.912H256V512h164.56c6.909,0,13.137-4.165,15.774-10.551l22.699-54.955
	C463.668,435.272,455.402,422.912,443.259,422.912z"/>
<path style="fill:#4AD0FF;" d="M489.389,457.045H22.611c-9.425,0-17.067-7.641-17.067-17.067v-77.352
	c0-9.425,7.641-17.067,17.067-17.067h466.778c9.425,0,17.067,7.641,17.067,17.067v77.352
	C506.456,449.404,498.814,457.045,489.389,457.045z"/>
<path style="fill:#16A5D9;" d="M489.389,345.56H256v111.485h233.389c9.425,0,17.067-7.641,17.067-17.067v-77.352
	C506.456,353.202,498.814,345.56,489.389,345.56z"/>
<g>
	<path style="fill:#FF835D;" d="M366.906,66.809H256v34.133h110.906c9.425,0,17.067-7.641,17.067-17.067
		S376.331,66.809,366.906,66.809z"/>
	<path style="fill:#FF835D;" d="M366.906,126.125H256v34.133h110.906c9.425,0,17.067-7.641,17.067-17.067
		C383.973,133.766,376.331,126.125,366.906,126.125z"/>
</g>
<g>
</g>
<g>
</g>
<g>
</g>
<g>
</g>
<g>
</g>
<g>
</g>
<g>
</g>
<g>
</g>
<g>
</g>
<g>
</g>
<g>
</g>
<g>
</g>
<g>
</g>
<g>
</g>
<g>
</g>
</svg>
