<svg xmlns="http://www.w3.org/2000/svg" data-name="Layer 1" viewBox="0 0 512 512"><path fill="#4689d3" d="M168.36,457.251a4.458,4.458,0,0,0-3.34-4.13L62.54,426.371a4.443,4.443,0,0,0-5.54,4.49L59.19,484.6a4.443,4.443,0,0,0,4.08,4.25l101.69,7.14a4.44,4.44,0,0,0,4.78-4.619Z"/><path fill="#ffd39f" d="M140.96,281.071a26.22,26.22,0,0,1,17.19,23.48l1.22,29.91.21,5.33a41.482,41.482,0,0,0,4.98,18.07l1.92,3.56a58.093,58.093,0,0,1-3.53,61.04l-7.56,9.1a34.548,34.548,0,0,0-4.21,6.43,33.739,33.739,0,0,0-3.35,10.53l-.04.17-67.38-17.31,17.2-29.43a19.507,19.507,0,0,0,1.35-14.49L86.93,334.9a63.509,63.509,0,0,1,4.08-40.14l49.95-94.85.95.01Z"/><path fill="#b0b5ca" d="M427.45,16H170.05A27.58,27.58,0,0,0,142.5,43.6l-1.54,237.471a26.217,26.217,0,0,1,17.19,23.479l1.22,29.911.21,5.33a41.482,41.482,0,0,0,4.98,18.07l1.92,3.56a58.093,58.093,0,0,1-3.53,61.04l-7.56,9.1a34.581,34.581,0,0,0-4.21,6.43l.84.42,275.43-.11A27.573,27.573,0,0,0,455,410.7V43.6A27.574,27.574,0,0,0,427.45,16Z"/><path fill="#ffdb00" d="M97.96,462.131a8.6,8.6,0,1,1-8.94-8.14A8.559,8.559,0,0,1,97.96,462.131Z"/><path fill="#f4f8fc" d="M413.67,71.541v294.5a10,10,0,0,1-10,10H193.83a10,10,0,0,1-10-10V71.541a10,10,0,0,1,10-10H403.67A10,10,0,0,1,413.67,71.541Z"/><rect width="46.37" height="34.9" x="350.05" y="312.461" fill="#fb6771"/><rect width="46.37" height="34.89" x="350.05" y="236.811" fill="#fff655"/><rect width="46.37" height="34.89" x="350.05" y="161.151" fill="#50dd5a"/><rect width="46.37" height="34.9" x="350.05" y="85.491" fill="#edb740"/><path fill="#9be147" d="M324.69,85.671v86.31a1.993,1.993,0,0,1-2,2H210.35a2,2,0,0,1-2-2V85.671a2.006,2.006,0,0,1,2-2H322.69A2,2,0,0,1,324.69,85.671Z"/><path fill="#f43b3b" d="M286.12,126.761a2,2,0,0,1,0,3.47L257,147.071a2.005,2.005,0,0,1-3.01-1.73v-33.69a2.01,2.01,0,0,1,3.01-1.74Z"/><path fill="#efc597" d="M110.41,431.38l17.2-29.429a19.507,19.507,0,0,0,1.35-14.49L116.93,334.9a63.512,63.512,0,0,1,4.08-40.141l20.24-38.433.66-56.406-.95-.01L91.01,294.76A63.512,63.512,0,0,0,86.93,334.9l12.03,52.56a19.507,19.507,0,0,1-1.35,14.49L80.41,431.38l67.38,17.31.04-.169a33.679,33.679,0,0,1,1.842-7.054Z"/><path fill="#284268" d="M74.778 463.075A14.339 14.339 0 0 0 79.5 473.167a14.547 14.547 0 0 0 9.845 3.806c.2 0 .41 0 .616-.012a14.568 14.568 0 0 0 14-15.078 14.342 14.342 0 0 0-4.718-10.092 14.625 14.625 0 0 0-24.46 11.284zm14.49-3.088a2.637 2.637 0 0 1 1.893.679 2.434 2.434 0 0 1 .8 1.7 2.553 2.553 0 0 1-2.5 2.6 2.62 2.62 0 0 1-1.894-.679 2.431 2.431 0 0 1-.8-1.7A2.553 2.553 0 0 1 89.268 459.987zM322.693 77.675H210.351a8.008 8.008 0 0 0-8 8v86.309a8.009 8.009 0 0 0 8 8H322.693a8.009 8.009 0 0 0 8-8V85.675A8.009 8.009 0 0 0 322.693 77.675zm-4 90.309H214.351V89.675H318.693z"/><path fill="#284268" d="M252 152.272a8.021 8.021 0 0 0 8 0l29.127-16.847a8 8 0 0 0 0-13.85L260 104.721a8 8 0 0 0-12.006 6.925v33.7A8.021 8.021 0 0 0 252 152.272zm8-33.691l17.139 9.913-17.139 9.914zM322.694 199.187H213.872a6 6 0 0 0 0 12H322.694a6 6 0 1 0 0-12zM322.694 245.767H213.872a6 6 0 0 0 0 12H322.694a6 6 0 0 0 0-12zM322.694 292.347H213.872a6 6 0 0 0 0 12H322.694a6 6 0 0 0 0-12zM322.694 338.926H213.872a6 6 0 0 0 0 12H322.694a6 6 0 0 0 0-12zM396.423 79.489H350.054a6 6 0 0 0-6 6v34.9a6 6 0 0 0 6 6h46.369a6 6 0 0 0 6-6v-34.9A6 6 0 0 0 396.423 79.489zm-6 34.9H356.054v-22.9h34.369zM396.423 155.148H350.054a6 6 0 0 0-6 6v34.9a6 6 0 0 0 6 6h46.369a6 6 0 0 0 6-6v-34.9A6 6 0 0 0 396.423 155.148zm-6 34.9H356.054v-22.9h34.369zM396.423 230.807H350.054a6 6 0 0 0-6 6v34.9a6 6 0 0 0 6 6h46.369a6 6 0 0 0 6-6v-34.9A6 6 0 0 0 396.423 230.807zm-6 34.9H356.054v-22.9h34.369zM396.423 306.466H350.054a6 6 0 0 0-6 6v34.9a6 6 0 0 0 6 6h46.369a6 6 0 0 0 6-6v-34.9A6 6 0 0 0 396.423 306.466zm-6 34.9H356.054v-22.9h34.369z"/><path fill="#284268" d="M427.449,10h-257.4A33.614,33.614,0,0,0,136.5,43.6V150.059l-.554,47.213-.294-.155L85.7,291.966c-.057.107-.11.216-.16.327a69.966,69.966,0,0,0-4.462,43.945L93.11,388.8c.029.126.062.252.1.376a13.445,13.445,0,0,1-.87,9.9L77.571,424.357,64.161,420.6c-.042-.012-.085-.024-.127-.034A10.439,10.439,0,0,0,51.009,431.1L53.2,484.841a10.461,10.461,0,0,0,9.66,9.993l101.632,7.133q.411.033.821.033a10.442,10.442,0,0,0,10.43-10.871l-1.388-34.122a10.377,10.377,0,0,0-7.833-9.693l-11.308-2.906,272.24-.108A33.614,33.614,0,0,0,461,410.7V43.6A33.614,33.614,0,0,0,427.449,10ZM102.79,404.974c.055-.093.107-.188.156-.284a25.4,25.4,0,0,0,1.821-18.749L92.781,333.577a57.889,57.889,0,0,1,3.625-36.185l39.24-74.509-.595,50.708a33.012,33.012,0,0,0-4.745-.146,6,6,0,0,0-5.732,6.513l2.6,30a141.19,141.19,0,0,1-.157,26.021,6,6,0,1,0,11.941,1.181,153.174,153.174,0,0,0,.171-28.238l-1.973-22.777q.87.237,1.723.553a20.191,20.191,0,0,1,13.275,18.1l1.434,35.241a47.77,47.77,0,0,0,5.692,20.679l1.928,3.561a51.891,51.891,0,0,1-3.041,54.545l-7.391,8.9a40.355,40.355,0,0,0-7.419,13.637L89.6,427.551Zm60.888,84.907-98.55-6.916-2.042-50.207,15.708,4.4c.042.013.084.024.127.034l83.486,21.451ZM449,410.7a21.6,21.6,0,0,1-21.553,21.6l-264.959.1,5.074-6.113c.1-.127.206-.258.3-.393a63.829,63.829,0,0,0,3.9-67.334L169.833,355a35.692,35.692,0,0,1-4.255-15.454l-1.433-35.241a32.082,32.082,0,0,0-17.137-27.072L148.5,150.129V43.6A21.6,21.6,0,0,1,170.052,22h257.4A21.6,21.6,0,0,1,449,43.6Z"/><path fill="#284268" d="M313.525 401.349H283.977a6 6 0 0 0 0 12h29.548a6 6 0 0 0 0-12zM403.674 55.542H193.828a16.018 16.018 0 0 0-16 16v294.5a16.017 16.017 0 0 0 16 16H403.674a16.017 16.017 0 0 0 16-16V71.542A16.018 16.018 0 0 0 403.674 55.542zm4 310.5a4 4 0 0 1-4 4H193.828a4 4 0 0 1-4-4V71.542a4 4 0 0 1 4-4H403.674a4 4 0 0 1 4 4z"/></svg>