<?xml version="1.0" encoding="iso-8859-1"?>
<!-- Generator: Adobe Illustrator 19.0.0, SVG Export Plug-In . SVG Version: 6.00 Build 0)  -->
<svg version="1.1" id="Layer_1" xmlns="http://www.w3.org/2000/svg" xmlns:xlink="http://www.w3.org/1999/xlink" x="0px" y="0px"
	 viewBox="0 0 290.626 290.626" style="enable-background:new 0 0 290.626 290.626;" xml:space="preserve">
<g>
	<g>
		<circle style="fill:#F9BA48;" cx="145.313" cy="145.313" r="103.125"/>
		<path style="fill:#333333;" d="M117.188,215.625c7.753,0,14.063-6.309,14.063-14.063v-187.5C131.25,6.31,124.941,0,117.188,0
			H14.063C6.309,0,0,6.31,0,14.063v187.5c0,7.753,6.309,14.063,14.063,14.063h103.125V215.625z M121.875,168.75H9.375V37.5h112.5
			V168.75z M14.063,9.375h103.125c2.583,0,4.688,2.105,4.688,4.688v14.063H9.375V14.063C9.375,11.48,11.48,9.375,14.063,9.375z
			 M9.375,201.563v-23.438h56.25h56.25v23.438c0,2.587-2.105,4.688-4.688,4.688H65.625H14.063
			C11.48,206.25,9.375,204.15,9.375,201.563z"/>
		<path style="fill:#333333;" d="M51.563,192.188c0,7.753,6.309,14.063,14.063,14.063s14.063-6.309,14.063-14.063
			c0-7.753-6.309-14.063-14.063-14.063S51.563,184.435,51.563,192.188z M65.625,187.5c2.583,0,4.688,2.1,4.688,4.688
			c0,2.587-2.105,4.688-4.688,4.688s-4.688-2.1-4.688-4.688C60.938,189.6,63.042,187.5,65.625,187.5z"/>
		<rect x="60.938" y="14.063" style="fill:#333333;" width="28.125" height="9.375"/>
		<rect x="42.188" y="14.063" style="fill:#333333;" width="9.375" height="9.375"/>
		<path style="fill:#333333;" d="M276.563,75H173.438c-7.753,0-14.063,6.309-14.063,14.063v187.5
			c0,7.753,6.309,14.063,14.063,14.063h103.125c7.753,0,14.063-6.309,14.063-14.063v-187.5C290.625,81.31,284.316,75,276.563,75z
			 M173.438,84.375h103.125c2.583,0,4.688,2.105,4.688,4.688v14.063h-112.5V89.063C168.75,86.48,170.855,84.375,173.438,84.375z
			 M281.25,112.5v131.25h-112.5V112.5H281.25z M276.563,281.25H225h-51.563c-2.583,0-4.688-2.1-4.688-4.688v-23.438H225h56.25
			v23.438C281.25,279.15,279.146,281.25,276.563,281.25z"/>
		<path style="fill:#333333;" d="M239.063,267.188c0-7.753-6.309-14.063-14.063-14.063c-7.753,0-14.063,6.309-14.063,14.063
			s6.31,14.062,14.063,14.062C232.754,281.25,239.063,274.941,239.063,267.188z M225,271.875c-2.583,0-4.688-2.1-4.688-4.688
			s2.105-4.688,4.688-4.688s4.688,2.1,4.688,4.688S227.583,271.875,225,271.875z"/>
		<rect x="220.313" y="89.063" style="fill:#333333;" width="28.125" height="9.375"/>
		<rect x="201.563" y="89.063" style="fill:#333333;" width="9.375" height="9.375"/>
		<path style="fill:#333333;" d="M192.188,210.938v4.688c0,2.592,2.1,4.688,4.688,4.688h56.25c2.587,0,4.688-2.095,4.688-4.688
			v-4.688c0-14.278-9.183-26.423-21.942-30.923c7.434-3.933,12.567-11.658,12.567-20.639c0-12.923-10.514-23.438-23.438-23.438
			c-12.923,0-23.438,10.514-23.438,23.438c0,8.981,5.133,16.706,12.567,20.639C201.371,184.514,192.188,196.66,192.188,210.938z
			 M225,145.313c7.753,0,14.063,6.309,14.063,14.063c0,7.753-6.309,14.063-14.063,14.063c-7.753,0-14.063-6.309-14.063-14.063
			C210.938,151.622,217.247,145.313,225,145.313z M225,187.5c12.923,0,23.438,10.514,23.438,23.438h-46.875
			C201.563,198.014,212.077,187.5,225,187.5z"/>
		<path style="fill:#333333;" d="M32.813,135.938v4.688c0,2.588,2.1,4.688,4.688,4.688h56.25c2.588,0,4.688-2.1,4.688-4.688v-4.688
			c0-14.278-9.183-26.423-21.942-30.923c7.434-3.933,12.567-11.658,12.567-20.639c0-12.923-10.514-23.438-23.438-23.438
			S42.188,71.452,42.188,84.375c0,8.981,5.133,16.706,12.567,20.639C41.995,109.514,32.813,121.66,32.813,135.938z M65.625,70.313
			c7.753,0,14.063,6.309,14.063,14.063s-6.309,14.063-14.063,14.063S51.562,92.13,51.562,84.376S57.872,70.313,65.625,70.313z
			 M65.625,112.5c12.923,0,23.438,10.514,23.438,23.437H42.188C42.188,123.014,52.702,112.5,65.625,112.5z"/>
		<path style="fill:#333333;" d="M267.188,65.625h9.375C276.563,29.438,247.125,0,210.938,0h-70.313v9.375h70.313
			C241.955,9.375,267.188,34.608,267.188,65.625z"/>
		<path style="fill:#333333;" d="M23.438,225h-9.375c0,36.188,29.438,65.625,65.625,65.625H150v-9.375H79.688
			C48.67,281.25,23.438,256.017,23.438,225z"/>
	</g>
</g>
<g>
</g>
<g>
</g>
<g>
</g>
<g>
</g>
<g>
</g>
<g>
</g>
<g>
</g>
<g>
</g>
<g>
</g>
<g>
</g>
<g>
</g>
<g>
</g>
<g>
</g>
<g>
</g>
<g>
</g>
</svg>
