<?xml version="1.0" encoding="iso-8859-1"?>
<!-- Generator: Adobe Illustrator 19.0.0, SVG Export Plug-In . SVG Version: 6.00 Build 0)  -->
<svg version="1.1" id="Layer_1" xmlns="http://www.w3.org/2000/svg" xmlns:xlink="http://www.w3.org/1999/xlink" x="0px" y="0px"
	 viewBox="0 0 493.713 493.713" style="enable-background:new 0 0 493.713 493.713;" xml:space="preserve">
<g id="XMLID_1094_">
	<g id="XMLID_1115_">
		<rect x="7.714" y="30.857" style="fill:#F9B233;" width="478.286" height="285.429"/>
	</g>
	<g id="XMLID_1114_">
		<path style="fill:#A48A7B;" d="M286.421,276.021L161.072,150.673c-6.056-6.056-6.056-15.876,0-21.932l19.894-19.894l23.783,23.784
			l-11.005,17.986l98.187,98.187l14.496-14.496l27.274,27.275l-19.95,19.95C307.695,287.589,292.477,282.077,286.421,276.021z"/>
	</g>
	<g id="XMLID_1113_">
		<rect x="7.714" y="316.285" style="fill:#FAC15C;" width="478.286" height="61.714"/>
	</g>
	<g id="XMLID_1107_">
		<g id="XMLID_1112_">
			<path style="fill:#1D1D1B;" d="M303.334,285.621c-6.763,0-13.525-2.574-18.674-7.722L163.278,156.519
				c-4.987-4.988-7.734-11.62-7.734-18.674c0-7.055,2.747-13.687,7.734-18.675l14.006-14.006l9.338,9.338l-14.006,14.006
				c-2.494,2.494-3.868,5.81-3.868,9.337c0,3.526,1.373,6.843,3.867,9.336l121.382,121.382c5.148,5.149,13.526,5.148,18.675,0
				l14.004-14.006l9.338,9.338L322.009,277.9C316.86,283.047,310.097,285.621,303.334,285.621z"/>
		</g>
		<g id="XMLID_1111_">
			<path style="fill:#1D1D1B;" d="M296.331,251.415c-3.382,0-6.763-1.287-9.337-3.86l-93.37-93.37
				c-2.493-2.493-3.867-5.81-3.867-9.338c0-3.527,1.374-6.844,3.868-9.337l7.001-7.002l9.338,9.336l-7.002,7.003l93.37,93.37
				l7.002-7.003l9.338,9.338l-7.003,7.003C303.094,250.128,299.712,251.415,296.331,251.415z"/>
		</g>
		<g id="XMLID_1109_">
			
				<rect x="179.85" y="105.563" transform="matrix(-0.7071 -0.7071 0.7071 -0.7071 267.157 334.9904)" style="fill:#1D1D1B;" width="46.215" height="13.204"/>
		</g>
		<g id="XMLID_1108_">
			
				<rect x="305.897" y="231.612" transform="matrix(-0.7071 -0.7071 0.7071 -0.7071 393.2027 639.297)" style="fill:#1D1D1B;" width="46.215" height="13.204"/>
		</g>
	</g>
	<g id="XMLID_1105_">
		<rect x="231.428" y="61.715" style="fill:#1D1D1B;" width="30.857" height="15.428"/>
	</g>
	<path style="fill:#1D1D1B;" d="M0,23.143v293.143v7.714v61.714h493.713v-61.714v-7.714V23.143H0z M15.428,38.571h462.857v270.001
		H15.428V38.571z M478.285,370.285H15.428v-46.286h462.857V370.285z"/>
	<g id="XMLID_1103_">
		<rect x="30.856" y="339.429" style="fill:#1D1D1B;" width="69.429" height="15.428"/>
	</g>
	<g id="XMLID_1102_">
		<rect x="115.714" y="339.429" style="fill:#1D1D1B;" width="15.429" height="15.428"/>
	</g>
	<g id="XMLID_1101_">
		<rect x="146.57" y="339.429" style="fill:#1D1D1B;" width="15.429" height="15.428"/>
	</g>
	<g id="XMLID_1100_">
		<rect x="177.428" y="339.429" style="fill:#1D1D1B;" width="15.429" height="15.428"/>
	</g>
	<g id="XMLID_1099_">
		<rect x="208.285" y="339.429" style="fill:#1D1D1B;" width="15.429" height="15.428"/>
	</g>
	<g id="XMLID_1098_">
		<rect x="239.143" y="393.428" style="fill:#1D1D1B;" width="15.428" height="54"/>
	</g>
	<g id="XMLID_1095_">
		<rect x="185.509" y="455.142" style="fill:#1D1D1B;" width="122.719" height="15.428"/>
	</g>
</g>
<g>
</g>
<g>
</g>
<g>
</g>
<g>
</g>
<g>
</g>
<g>
</g>
<g>
</g>
<g>
</g>
<g>
</g>
<g>
</g>
<g>
</g>
<g>
</g>
<g>
</g>
<g>
</g>
<g>
</g>
</svg>
